<?xml version="1.0" encoding="UTF-8" standalone="no"?>
<svg
   id="svg"
   version="1.1"
   viewBox="0 0 300 109.48051948051949"
   width="300"
   height="109.48051948051949"
   xmlns="http://www.w3.org/2000/svg">
  <defs>
    <linearGradient id="main-gradient" x1="0%" y1="100%" x2="100%" y2="0%" gradientUnits="userSpaceOnUse">
      <stop offset="0%" stop-color="#2a52a4"/>
      <stop offset="100%" stop-color="#18a9a3"/>
    </linearGradient>
  </defs>
  <path
     id="path2"
     style="fill:url(#main-gradient);fill-opacity:1"
     d="M 55.541016 19.927734 C 52.388376 19.966134 49.261381 20.028579 46.119141 20.005859 L 39.996094 20 C 38.337894 19.99487 34.348048 19.520015 34.298828 22.171875 C 34.271148 23.662245 35.742429 24.876836 36.730469 25.853516 C 36.923389 30.749796 36.767629 36.162031 36.792969 41.113281 C 25.180719 41.851511 12.844548 46.592742 13.736328 60.607422 C 13.958358 64.278602 15.656349 67.703392 18.443359 70.101562 C 19.226319 70.787462 20.138089 71.382607 21.005859 71.960938 L 12.427734 85.175781 C 11.058304 87.303831 9.4006338 89.583294 8.4023438 91.865234 C 7.2187137 94.570734 8.493555 98.274404 10.984375 99.802734 C 11.857365 100.33841 12.941949 100.69882 13.980469 100.80273 C 17.697539 100.91543 21.972855 100.95983 25.671875 100.84375 C 32.861915 100.61805 40.645555 101.48157 47.640625 99.921875 C 52.625785 98.810215 57.890823 96.199406 60.658203 91.785156 C 62.865723 88.263756 63.666457 83.634958 62.716797 79.580078 C 62.061287 76.751748 60.57017 74.18749 58.4375 72.21875 C 52.78452 67.62247 46.170797 66.980021 39.273438 65.394531 C 35.454887 64.516781 27.767435 63.883386 27.046875 58.916016 C 26.627925 54.878286 30.337251 53.162256 33.488281 52.222656 C 32.619191 53.554456 31.703267 54.873234 30.841797 56.208984 C 29.381487 58.473194 29.883501 59.354676 31.744141 60.878906 C 33.296291 58.644006 34.708834 56.296244 36.214844 54.027344 C 37.140924 52.632234 39.207279 50.002625 39.755859 48.515625 C 40.058649 47.694885 40.22017 27.246559 39.90625 25.505859 C 39.75874 24.688049 39.194288 23.888789 38.767578 23.193359 L 48.626953 23.212891 C 50.446873 23.222131 52.956399 23.298301 54.730469 23.181641 C 53.352199 25.700271 53.486326 26.920981 53.509766 29.769531 C 52.271976 29.751211 47.926041 29.184024 47.931641 30.996094 C 47.934721 31.293314 48.060104 31.576307 48.277344 31.779297 C 49.146284 32.587577 52.233256 32.207791 53.572266 32.244141 L 53.548828 37.435547 C 52.981498 37.432617 45.847075 36.749393 48.296875 39.626953 C 48.893505 40.327803 52.243794 40.014346 53.490234 40.035156 C 53.544584 42.142986 53.573872 44.250815 53.576172 46.359375 C 54.974952 45.939625 55.429738 45.886741 56.861328 45.744141 C 56.927688 41.330911 56.937302 36.917276 56.888672 32.503906 C 56.885602 30.653876 56.739504 27.363847 57.027344 25.710938 C 58.022554 24.774718 59.273096 23.765597 59.347656 22.304688 C 59.451076 20.278057 57.045706 19.909414 55.541016 19.927734 z M 23.898438 73.503906 C 31.387598 76.410046 39.627786 76.666176 46.785156 79.759766 C 51.789356 81.922556 50.419196 88.183404 45.041016 89.402344 C 37.019236 91.220574 29.320416 89.557856 22.316406 85.878906 L 19.648438 84.324219 C 18.207328 87.333399 15.997169 90.60804 14.443359 93.75 C 16.609629 95.15317 18.693159 96.485296 21.005859 97.634766 C 17.881929 97.490986 12.121719 98.698841 11.324219 94.800781 C 10.978999 93.113431 12.247939 91.408413 13.136719 90.070312 C 16.782359 84.581923 20.253467 78.991716 23.898438 73.503906 z " />
  <path
     d="m 72.51431,47.01565 c 0.12759,0.01231 2.27651,1.01903 2.66484,1.17351 0.16055,13.92264 -0.04717,27.97528 -0.006,41.91624 l 28.63931,-0.10435 -0.008,10.88005 -14.37524,0.0192 c -9.18223,0.0306 -18.40093,-0.067 -27.57671,0.0412 0.04014,-2.06972 -0.02388,-4.07863 0.05229,-6.17063 5.6729,-6.98477 5.31343,-16.06916 0.05479,-23.15887 l 0.0145,-10.18227 c 3.09697,-2.27901 3.81504,-5.05076 3.50464,-8.7643 2.21177,-1.88535 4.74624,-3.82742 7.03608,-5.64975 z"
     fill="url(#main-gradient)"
     id="path4" />
  <path
     id="path5"
     style="fill:url(#main-gradient);fill-opacity:1"
     d="M 95.380859 17.042969 C 93.562549 17.354999 92.113236 18.010623 91.009766 19.564453 C 90.064356 20.921163 89.695998 22.598282 89.986328 24.226562 C 90.093708 24.830683 90.253175 25.32924 90.453125 25.90625 C 88.051655 27.93304 85.840531 29.872374 83.488281 31.927734 C 79.849901 29.507734 76.421879 28.729464 72.818359 31.902344 C 72.099119 31.377074 71.309176 30.824606 70.628906 30.259766 C 72.359466 24.102916 63.615189 22.035936 62.318359 27.691406 C 61.429639 31.567046 64.924947 34.385889 68.748047 32.599609 C 69.476957 33.230109 70.050391 33.715821 70.832031 34.275391 C 69.620751 37.153831 69.476956 38.684028 70.628906 41.705078 L 64.390625 46.648438 C 63.425145 47.418908 61.908208 48.711369 60.929688 49.380859 C 57.784087 47.339419 53.937402 47.480823 51.794922 50.845703 C 50.858002 52.317313 50.546284 54.102247 50.927734 55.804688 C 51.724904 59.362877 55.090869 61.367315 58.605469 60.546875 C 60.156449 60.169925 61.495848 59.197574 62.335938 57.839844 C 62.608537 57.403834 62.874808 56.830523 63.054688 56.351562 C 63.472308 54.518093 63.419289 53.680113 62.761719 51.908203 C 65.848439 49.516483 69.532272 46.658026 72.419922 44.072266 C 75.280322 46.550756 78.652979 47.218748 82.099609 45.423828 L 88.179688 52.300781 C 87.655707 53.493341 87.465185 54.789493 87.953125 56.033203 C 88.381885 57.104703 89.223339 57.95983 90.287109 58.40625 C 91.431299 58.89077 92.721581 58.894439 93.869141 58.417969 C 98.463031 56.543019 96.609623 48.569223 90.414062 50.195312 C 88.439303 48.005263 86.346684 45.534094 84.339844 43.427734 C 86.764454 40.656864 86.893899 37.355589 85.380859 34.099609 C 87.949019 32.138199 89.917042 30.122239 92.289062 28.193359 C 94.253412 29.231149 95.864351 29.893974 98.144531 29.183594 C 99.668411 28.714744 100.93745 27.652055 101.66797 26.234375 C 102.4442 24.739895 102.58819 22.995701 102.06641 21.394531 C 101.11777 18.450431 98.426269 16.810229 95.380859 17.042969 z M 78.267578 32.5625 C 80.737448 32.76549 82.549513 34.474152 83.507812 36.669922 C 84.052292 37.917442 83.722511 38.585832 82.556641 38.982422 C 81.516891 38.076382 81.868599 35.83901 80.599609 35.09375 C 79.730809 34.58357 78.484229 34.330059 77.511719 33.886719 C 77.293899 33.474299 77.342671 33.638924 77.394531 33.152344 C 77.679741 32.758244 77.80058 32.730899 78.267578 32.5625 z " />
  <path
     id="path7"
     style="fill:url(#main-gradient);fill-opacity:1"
     d="M 179.47461 46.589844 C 179.09073 46.581708 178.70343 46.593801 178.3125 46.625 C 172.00342 47.12858 167.3081 52.674515 167.85156 58.984375 C 168.39355 65.294085 173.96777 69.955627 180.26953 69.373047 C 186.51708 68.795457 191.12744 63.279561 190.58984 57.025391 C 190.08447 51.162247 185.23282 46.711887 179.47461 46.589844 z M 179.53906 51.234375 C 182.94657 51.387156 185.75552 54.094556 185.96289 57.574219 C 186.18408 61.285859 183.36132 64.478841 179.65234 64.712891 C 175.92578 64.948121 172.71875 62.108426 172.49609 58.378906 C 172.27343 54.649386 175.12158 51.448161 178.84961 51.238281 C 179.08151 51.225228 179.3119 51.22419 179.53906 51.234375 z " />
  <path
     id="path9"
     style="fill:url(#main-gradient);fill-opacity:1"
     d="M 271.73828 47.103516 C 271.70168 54.352826 271.80716 61.623641 271.72656 68.863281 C 274.00147 68.839811 276.29297 68.89182 278.56055 68.84375 C 282.74854 68.75479 287.66015 69.60916 290.39062 65.6875 C 291.95801 62.13972 290.87109 59.172812 287.42578 57.451172 C 292.32422 53.829522 289.97119 47.77586 284.27734 47.25 C 280.16553 46.87041 275.88672 47.156276 271.73828 47.103516 z M 279.44531 50.904297 C 280.36688 50.898966 281.28906 50.919416 282.19727 51.003906 C 284.58497 51.225946 286.15821 52.888817 284.35352 55.054688 C 282.54883 56.214267 278.91748 55.8694 276.67773 55.84375 C 276.70993 54.24097 276.68795 52.567774 276.68945 50.958984 C 277.60132 50.941689 278.52374 50.909628 279.44531 50.904297 z M 282.60547 59.59375 C 285.29492 59.68125 287.43262 61.308396 285.36133 64.035156 C 283.47168 65.238416 279.06202 64.863046 276.69922 64.847656 L 276.71484 59.617188 C 278.66015 59.593738 280.66015 59.53058 282.60547 59.59375 z " />
  <path
     d="m 142.54336,47.12001 2.13384,-0.04089 c 2.52495,4.43081 5.19536,8.80285 7.66216,13.25476 2.25146,-4.23222 5.10498,-8.96392 7.50879,-13.1746 l 4.17041,0.0048 c 0.18164,7.05072 0.085,14.54039 0.0747,21.60797 -1.54248,-0.0214 -3.08496,-0.0035 -4.62598,0.05349 l 0.0234,-7.15668 c -0.003,-1.96274 -0.0161,-3.92532 -0.041,-5.88791 -1.92041,3.54002 -4.00928,7.08121 -5.95898,10.6372 -0.79248,0.02433 -1.71387,-0.0086 -2.5166,-0.01773 -1.771,-3.48418 -4.00049,-7.03636 -5.95239,-10.43538 0.15791,4.08962 0.0398,8.70231 0.0215,12.82959 l -4.59082,0.03517 c 0.0464,-7.22703 0.0549,-14.45436 0.0255,-21.68154 z"
     id="path12"
     style="fill:url(#main-gradient);fill-opacity:1" />
  <path
     d="m 208.7417,47.10755 4.8457,-0.03855 0.063,21.73914 -4.18506,-0.03107 c -0.71924,-1.10037 -2.21484,-2.91332 -3.08789,-4.03744 l -7.12793,-9.01756 c 0.12158,4.23046 0.0293,8.85341 0.0161,13.11084 l -4.86475,-0.03254 c 0.1626,-6.98682 0.022,-14.62554 -0.006,-21.65296 1.34033,-0.03737 2.73926,-0.01275 4.08545,-0.0073 3.38086,4.13271 6.92139,8.8562 10.25977,13.10263 -0.041,-4.37834 -0.0395,-8.75698 0.001,-13.13517 z"
     fill="url(#main-gradient)"
     id="path13" />
  <path
     id="path14"
     style="fill:url(#main-gradient);fill-opacity:1"
     d="M 260.29688 47.058594 C 258.64599 47.070034 256.94921 47.059503 255.30273 47.095703 L 249.17969 61.130859 C 248.34326 63.030129 246.45215 66.981272 245.79297 68.826172 C 247.50977 68.821622 249.26465 68.835167 250.97852 68.804688 C 251.62598 67.280018 252.33399 65.68469 252.86719 64.125 C 255.27685 64.10437 257.80127 64.154763 260.19336 64.095703 L 262.56055 64.080078 C 263.15089 65.558728 263.91504 67.342102 264.41602 68.826172 L 269.75781 68.826172 C 267.64257 64.054162 265.54931 59.271766 263.48242 54.478516 C 262.51415 52.244506 261.1289 49.292614 260.29688 47.058594 z M 257.70508 52.287109 C 258.13867 52.684869 260.49218 59.099981 260.92578 60.269531 L 257.88672 60.257812 L 254.55859 60.269531 C 255.6455 57.623976 256.69434 54.962565 257.70508 52.287109 z " />
  <path
     d="m 117.97397,46.80944 c 3.22002,-0.13791 5.89629,0.16766 8.73428,1.81486 -0.54053,1.25221 -1.01836,2.60232 -1.49604,3.88473 -3.24976,-1.84446 -12.11499,-2.8059 -9.25649,1.94485 1.25142,2.07969 12.26792,1.09143 11.70425,7.91484 -0.47578,5.7604 -4.92612,6.71671 -9.27554,6.76713 -3.34453,-0.20064 -5.61094,-0.67081 -8.40923,-2.52494 0.66768,-1.40947 1.09629,-2.47819 1.63931,-3.9435 2.86069,1.71138 4.14199,2.19562 7.58965,2.34159 2.55557,0.10816 4.90518,-2.27051 2.60947,-3.73377 -3.26909,-2.08365 -10.93271,-1.20956 -11.36587,-6.95194 -0.3731,-4.94773 3.13828,-7.09835 7.52622,-7.51385 z"
     fill="url(#main-gradient)"
     id="path16" />
  <path
     d="m 230.08887,47.12206 4.89258,0.01598 c -0.0439,5.83662 -0.0308,11.67367 0.0395,17.50999 l 10.47217,-0.04499 c 0.041,1.41182 0.0513,2.82436 0.0352,4.23662 -5.09619,0.08794 -10.35352,-0.0236 -15.49072,0.02257 l -0.0557,-14.94856 c -0.004,-1.04263 -0.10254,-6.03389 0.10693,-6.7916 z"
     fill="url(#main-gradient)"
     id="path17" />
  <path
     d="m 130.85625,47.17101 4.89229,0.0019 c 0.0885,7.12708 0.0107,14.44894 0.0185,21.59316 -1.64854,-0.01334 -3.29722,-0.0013 -4.94531,0.03576 0.23159,-6.89507 0.005,-14.63463 0.0346,-21.63083 z"
     fill="url(#main-gradient)"
     id="path18" />
  <path
     d="m 217.68896,58.00738 c 2.74219,-0.05599 5.62646,-0.01363 8.37891,-0.01539 l -0.0366,3.96695 c -2.7041,0.0683 -5.62646,0.01275 -8.34814,0.0085 -0.0264,-1.2827 0.003,-2.66886 0.006,-3.96006 z"
     fill="url(#main-gradient)"
     id="path35" />
  <path
     d="m 44.01372,10.62978 c 1.65117,-0.40036 3.31816,0.59907 3.74385,2.2448 0.42583,1.64574 -0.54712,3.32882 -2.18525,3.78023 -0.93999,0.25912 -1.94722,0.06214 -2.72051,-0.53201 -0.77344,-0.59416 -1.22358,-1.51685 -1.21611,-2.49246 0.01113,-1.42744 0.99141,-2.66436 2.37803,-3.00056 z"
     fill="url(#main-gradient)"
     id="path36" />
  <path
     d="m 77.55176,77.88271 c 0.51211,0.41858 6.15513,9.40375 6.15454,9.75432 l -3.78442,-0.01216 c -0.63091,-1.06271 -1.66465,-2.50735 -2.37407,-3.56698 0.09009,-1.87788 0.04746,-4.28073 0.004,-6.17517 z"
     fill="url(#main-gradient)"
     id="path38" />
  <path
     d="m 44.23931,42.73258 c 1.25186,-0.27583 2.4939,0.50226 2.79272,1.74934 0.29897,1.24708 -0.45527,2.50398 -1.696,2.82627 -0.82339,0.21398 -1.69805,-0.03371 -2.28735,-0.64765 -0.58916,-0.61379 -0.80127,-1.49829 -0.5543,-2.31272 0.24683,-0.81458 0.91406,-1.43219 1.74492,-1.61524 z"
     fill="url(#main-gradient)"
     id="path41" />
  <path
     d="m 51.54229,5.92876 c 1.07754,-0.15488 2.0751,0.59754 2.2229,1.67663 0.1478,1.07909 -0.61069,2.07229 -1.69014,2.21318 C 51.00542,9.95815 50.02383,9.20772 49.87734,8.13849 49.73086,7.06924 50.47456,6.08223 51.54228,5.92876 Z"
     fill="url(#main-gradient)"
     id="path42" />
  <path
     d="m 50.61489,15.59724 c 0.3895,-0.13967 0.82397,-0.05833 1.13657,0.21281 0.31274,0.27099 0.45498,0.68971 0.37222,1.09524 -0.08262,0.40553 -0.37749,0.735 -0.77139,0.86177 -0.59517,0.1917 -1.23413,-0.12971 -1.4354,-0.72196 -0.20127,-0.5924 0.10942,-1.23682 0.698,-1.44787 z"
     fill="url(#main-gradient)"
     id="path43" />
</svg>
